<?xml version="1.0" standalone="no"?>
<svg xmlns:xlink="http://www.w3.org/1999/xlink" id="wave" style="transform:rotate(0deg); transition: 0.3s" viewBox="0 0 1440 490" version="1.1" xmlns="http://www.w3.org/2000/svg"><defs><linearGradient id="sw-gradient-0" x1="0" x2="0" y1="1" y2="0"><stop stop-color="rgba(12, 68, 58, 1)" offset="0%"/><stop stop-color="rgba(37, 209, 178, 1)" offset="100%"/></linearGradient></defs><path style="transform:translate(0, 0px); opacity:1" fill="url(#sw-gradient-0)" d="M0,392L34.3,351.2C68.6,310,137,229,206,171.5C274.3,114,343,82,411,130.7C480,180,549,310,617,310.3C685.7,310,754,180,823,155.2C891.4,131,960,212,1029,212.3C1097.1,212,1166,131,1234,106.2C1302.9,82,1371,114,1440,171.5C1508.6,229,1577,310,1646,334.8C1714.3,359,1783,327,1851,318.5C1920,310,1989,327,2057,310.3C2125.7,294,2194,245,2263,253.2C2331.4,261,2400,327,2469,318.5C2537.1,310,2606,229,2674,236.8C2742.9,245,2811,343,2880,392C2948.6,441,3017,441,3086,375.7C3154.3,310,3223,180,3291,138.8C3360,98,3429,147,3497,204.2C3565.7,261,3634,327,3703,334.8C3771.4,343,3840,294,3909,277.7C3977.1,261,4046,278,4114,261.3C4182.9,245,4251,196,4320,187.8C4388.6,180,4457,212,4526,236.8C4594.3,261,4663,278,4731,261.3C4800,245,4869,196,4903,171.5L4937.1,147L4937.1,490L4902.9,490C4868.6,490,4800,490,4731,490C4662.9,490,4594,490,4526,490C4457.1,490,4389,490,4320,490C4251.4,490,4183,490,4114,490C4045.7,490,3977,490,3909,490C3840,490,3771,490,3703,490C3634.3,490,3566,490,3497,490C3428.6,490,3360,490,3291,490C3222.9,490,3154,490,3086,490C3017.1,490,2949,490,2880,490C2811.4,490,2743,490,2674,490C2605.7,490,2537,490,2469,490C2400,490,2331,490,2263,490C2194.3,490,2126,490,2057,490C1988.6,490,1920,490,1851,490C1782.9,490,1714,490,1646,490C1577.1,490,1509,490,1440,490C1371.4,490,1303,490,1234,490C1165.7,490,1097,490,1029,490C960,490,891,490,823,490C754.3,490,686,490,617,490C548.6,490,480,490,411,490C342.9,490,274,490,206,490C137.1,490,69,490,34,490L0,490Z"/></svg>